<?xml version="1.0" encoding="utf-8"?>
<!-- Generator: Adobe Illustrator 17.1.0, SVG Export Plug-In . SVG Version: 6.00 Build 0)  -->
<!DOCTYPE svg PUBLIC "-//W3C//DTD SVG 1.1//EN" "http://www.w3.org/Graphics/SVG/1.1/DTD/svg11.dtd">
<svg version="1.1" id="Layer_1" xmlns="http://www.w3.org/2000/svg" xmlns:xlink="http://www.w3.org/1999/xlink" x="0px" y="0px"
	 width="206px" height="60px" viewBox="0 0 206 60" enable-background="new 0 0 206 60" xml:space="preserve">
<rect fill="none" width="206" height="60"/>
<path fill="#F5A500" d="M36.7,42.6l-4.1-4.1c1.7-1.7,2.5-3.8,2.5-6c0-2.3-1-4.4-2.5-6c-3.3-3.3-8.7-3.3-12.1,0l-4-4
	c5.6-5.6,14.6-5.5,20.2,0c2.6,2.6,4.2,6.3,4.2,10.1C40.9,36.3,39.5,39.9,36.7,42.6z"/>
<path fill="#0082BE" d="M12.5,46.6c-3.8-3.8-5.9-8.7-5.9-14.1s2-10.3,5.9-14.1c7.8-7.8,20.4-7.8,28.2,0l-4.1,4.1
	C31,17,22,16.9,16.4,22.5c-2.6,2.6-4.2,6.3-4.2,10.1c0,3.8,1.6,7.3,4.2,10.1L12.5,46.6z"/>
<path fill="#73B941" d="M26.7,58.2C12.5,58.2,1,46.7,1,32.5h5.7c0,11,9,20,20,20s20-9,20-20h5.7C52.3,46.7,40.8,58.2,26.7,58.2z"/>
<path fill="#E62319" d="M48.9,54.7l-4.1-4.1c10-10,10-26.3,0-36.3c-4.9-4.9-11.3-7.5-18.2-7.5S13.3,9.4,8.4,14.3l-4.1-4.1
	C10.3,4.3,18.1,1,26.5,1s16.3,3.3,22.1,9.2c5.9,5.9,9.2,13.7,9.2,22.1S54.8,48.7,48.9,54.7z"/>
<path fill="#1D1D1B" d="M99.8,29.1c0-6.6,4.4-10.5,9.6-10.5c4,0,6.8,1.9,7.9,4.7h0.1c1-2.8,3.8-4.7,7.9-4.7c5.1,0,9.6,3.8,9.6,10.5
	v16.4h-5.6V29.1c0-3.1-2-4.9-4.3-4.9c-2.7,0-4.7,1.7-4.7,5.7v15.6h-5.6V29.8c0-4.1-2-5.7-4.7-5.7c-2.4,0-4.3,1.7-4.3,4.9v16.3H100
	V29.1H99.8z"/>
<circle fill="#1D1D1B" cx="142.1" cy="13.8" r="3.1"/>
<polygon fill="#1D1D1B" points="139.3,19.3 145,19.3 145,45.4 139.3,45.4 "/>
<path fill="#1D1D1B" d="M149.5,19.3h5.6v3.2h0.1c1.6-2.4,4.4-3.9,8-3.9c5.5,0,10.2,4.5,10.2,11.1v15.8h-5.6V30.9
	c0-4.8-2.4-6.7-6.2-6.7c-3.7,0-6.5,2.4-6.5,6.6v14.7h-5.6C149.5,45.5,149.5,19.3,149.5,19.3z"/>
<path fill="#1D1D1B" d="M190.5,18.6c9.2,0,14.5,6.8,14.5,13.7s-5.3,13.8-14.5,13.8S176,39.3,176,32.3S181.4,18.6,190.5,18.6z
	 M190.5,40.8c4.9,0,8.5-3.8,8.5-8.5s-3.6-8.5-8.5-8.5s-8.5,3.8-8.5,8.5S185.6,40.8,190.5,40.8z"/>
<path fill="#1D1D1B" d="M84.6,40.2c-0.9,0.3-1.8,0.5-2.7,0.5c-4.5,0-8.4-3.8-8.4-8.5s3.8-8.5,8.4-8.5c4.4,0,8.2,3.8,8.2,8.5
	c0,2.2-0.8,4.1-2,5.6l7.4,7.4l0,0v-26H90v3.1h-0.2c-1.4-2.3-4.4-3.8-8.4-3.8c-8.5,0-13.9,7.3-13.9,13.7c0,6.7,5,13.8,13.5,13.8
	c2.6,0,5.2-0.8,7-2.3L84.6,40.2z"/>
</svg>
