<?xml version="1.0" encoding="utf-8"?>
<!-- Generator: Adobe Illustrator 17.1.0, SVG Export Plug-In . SVG Version: 6.00 Build 0)  -->
<!DOCTYPE svg PUBLIC "-//W3C//DTD SVG 1.1//EN" "http://www.w3.org/Graphics/SVG/1.1/DTD/svg11.dtd">
<svg version="1.1" id="Layer_1" xmlns="http://www.w3.org/2000/svg" xmlns:xlink="http://www.w3.org/1999/xlink" x="0px" y="0px"
	 viewBox="0 0 113.3 29.7" enable-background="new 0 0 113.3 29.7" xml:space="preserve">
<g>
	<g>
		<g>
			<path fill="#808080" d="M26.4,15.4c0-5.4,3.6-8.5,7.8-8.5c3.2,0,5.5,1.5,6.4,3.8h0.1c0.8-2.2,3.2-3.8,6.4-3.8
				c4.2,0,7.8,3.1,7.8,8.5v13.3l-4.6,0V15.4c0-2.6-1.6-4-3.5-4c-2.2,0-3.8,1.3-3.8,4.6v12.7l-4.6,0V16c0-3.3-1.6-4.6-3.8-4.6
				c-1.9,0-3.5,1.5-3.5,4v13.3l-4.6,0V15.4z"/>
			<circle fill="#808080" cx="60.9" cy="3.1" r="2.6"/>
			<polygon fill="#808080" points="58.6,7.4 63.2,7.4 63.2,28.7 58.6,28.7 			"/>
			<path fill="#808080" d="M67,7.4h4.6v2.7h0.1c1.3-2,3.6-3.3,6.5-3.3c4.5,0,8.3,3.7,8.3,9v12.9l-4.6,0V16.9c0-3.9-2-5.5-5.1-5.5
				c-3,0-5.2,1.9-5.2,5.4v11.9l-4.6,0V7.4z"/>
			<path fill="#808080" d="M100.3,6.8c7.4,0,11.8,5.6,11.8,11.2s-4.3,11.2-11.8,11.2c-7.4,0-11.8-5.6-11.8-11.2S92.9,6.8,100.3,6.8z
				 M100.3,25c4,0,6.9-3.1,6.9-6.9s-2.9-6.9-6.9-6.9c-4,0-6.9,3.1-6.9,6.9S96.3,25,100.3,25z"/>
			<path fill="#808080" d="M14.4,24.6c-0.7,0.3-1.5,0.4-2.3,0.4c-3.7,0-6.8-3.1-6.8-6.9c0-3.8,3.1-6.9,6.8-6.9
				c3.6,0,6.7,3.1,6.7,6.9c0,1.8-0.6,3.3-1.7,4.6l6.1,6.1h0V7.4h-4.6V10h-0.1c-1.2-1.8-3.6-3.2-6.8-3.2c-6.9,0-11.3,6-11.3,11.2
				c0,5.5,4.1,11.2,11.1,11.2c2.2,0,4.2-0.7,5.7-1.9L14.4,24.6z"/>
		</g>
	</g>
</g>
</svg>
